<?xml version="1.0" standalone="no"?>
<!DOCTYPE svg PUBLIC "-//W3C//DTD SVG 20010904//EN"
 "http://www.w3.org/TR/2001/REC-SVG-20010904/DTD/svg10.dtd">
<svg version="1.0" xmlns="http://www.w3.org/2000/svg"
 width="572.000000pt" height="159.000000pt" viewBox="0 0 572.000000 159.000000"
 preserveAspectRatio="xMidYMid meet">

<g transform="translate(0.000000,159.000000) scale(0.100000,-0.100000)"
fill="#000000" stroke="none">
<path d="M1050 1330 c20 -13 53 -13 45 0 -3 6 -18 10 -33 10 -21 0 -24 -2 -12
-10z"/>
<path d="M1118 1304 c3 -16 -1 -30 -9 -35 -10 -6 -5 -9 16 -8 17 0 24 3 18 6
-7 2 -13 18 -13 34 0 16 -4 29 -9 29 -4 0 -6 -12 -3 -26z"/>
<path d="M762 1285 c0 -16 2 -22 5 -12 2 9 2 23 0 30 -3 6 -5 -1 -5 -18z"/>
<path d="M1285 1270 c-18 -8 -17 -9 8 -9 16 -1 26 3 22 9 -3 6 -7 10 -8 9 -1
0 -11 -4 -22 -9z"/>
<path d="M938 1253 c12 -2 30 -2 40 0 9 3 -1 5 -23 4 -22 0 -30 -2 -17 -4z"/>
<path d="M730 1240 c0 -5 5 -10 10 -10 6 0 10 5 10 10 0 6 -4 10 -10 10 -5 0
-10 -4 -10 -10z"/>
<path d="M760 1240 c0 -5 5 -10 11 -10 5 0 7 5 4 10 -3 6 -8 10 -11 10 -2 0
-4 -4 -4 -10z"/>
<path d="M800 1239 c0 -5 5 -7 10 -4 6 3 10 8 10 11 0 2 -4 4 -10 4 -5 0 -10
-5 -10 -11z"/>
<path d="M608 1223 c7 -3 16 -2 19 1 4 3 -2 6 -13 5 -11 0 -14 -3 -6 -6z"/>
<path d="M1200 1205 c0 -5 5 -17 10 -25 5 -8 10 -10 10 -5 0 6 -5 17 -10 25
-5 8 -10 11 -10 5z"/>
<path d="M1280 1200 c0 -7 9 -27 20 -45 22 -36 14 -33 197 -57 56 -7 108 -19
115 -25 9 -10 7 -13 -12 -14 l-25 -1 25 -7 c14 -5 28 -6 32 -4 4 2 -9 31 -29
66 -44 75 -45 75 -50 59 -3 -6 -9 -9 -15 -6 -5 3 -53 12 -106 20 -53 7 -109
16 -124 20 -19 4 -28 2 -28 -6z m130 -56 c0 -8 -4 -12 -10 -9 -5 3 -10 10 -10
16 0 5 5 9 10 9 6 0 10 -7 10 -16z m130 -20 c0 -8 -4 -12 -10 -9 -5 3 -10 13
-10 21 0 8 5 12 10 9 6 -3 10 -13 10 -21z"/>
<path d="M788 1173 c12 -2 30 -2 40 0 9 3 -1 5 -23 4 -22 0 -30 -2 -17 -4z"/>
<path d="M599 1159 c-10 -6 -7 -9 14 -9 29 0 35 5 14 13 -8 3 -20 1 -28 -4z"/>
<path d="M905 1146 c-8 -30 -30 -55 -103 -116 -48 -40 -52 -50 -19 -50 25 0
84 56 104 100 10 22 11 15 12 -52 1 -49 -3 -78 -10 -78 -6 0 -4 -9 4 -21 11
-14 13 -38 9 -84 -2 -35 -1 -72 4 -82 6 -11 11 46 14 157 l5 175 30 6 30 7
-32 1 c-28 1 -32 5 -35 34 l-4 32 -9 -29z"/>
<path d="M398 1143 c12 -2 30 -2 40 0 9 3 -1 5 -23 4 -22 0 -30 -2 -17 -4z"/>
<path d="M760 1146 c0 -9 40 -13 46 -5 3 5 -6 9 -20 9 -14 0 -26 -2 -26 -4z"/>
<path d="M1236 1137 c3 -10 9 -15 12 -12 3 3 0 11 -7 18 -10 9 -11 8 -5 -6z"/>
<path d="M563 1133 c9 -2 23 -2 30 0 6 3 -1 5 -18 5 -16 0 -22 -2 -12 -5z"/>
<path d="M377 1106 c12 -16 20 -20 25 -12 15 22 8 36 -17 36 -26 0 -26 0 -8
-24z"/>
<path d="M1291 1108 c-1 -21 -12 -23 -29 -6 -9 9 -12 8 -12 -8 0 -11 10 -28
22 -38 18 -16 20 -16 15 -2 -8 20 21 35 33 17 5 -9 9 -6 13 8 4 16 0 21 -13
21 -10 0 -21 6 -23 13 -3 7 -6 5 -6 -5z"/>
<path d="M1400 1081 c0 -6 9 -11 19 -11 11 0 22 -6 25 -12 3 -7 5 -4 3 7 -2
21 -47 36 -47 16z"/>
<path d="M950 1061 c0 -17 15 -19 35 -5 18 13 18 14 -8 14 -15 0 -27 -4 -27
-9z"/>
<path d="M1065 1060 c3 -5 8 -10 11 -10 2 0 4 5 4 10 0 6 -5 10 -11 10 -5 0
-7 -4 -4 -10z"/>
<path d="M1100 1061 c0 -5 5 -13 10 -16 15 -9 12 -51 -5 -65 -18 -15 -19 -37
-2 -43 7 -3 5 -6 -5 -6 -15 -1 -18 -11 -18 -53 0 -29 -3 -63 -6 -75 -5 -20 -3
-21 22 -14 l29 7 0 134 c0 98 -3 134 -12 138 -7 2 -13 -1 -13 -7z"/>
<path d="M1166 1054 c-3 -9 -5 -68 -4 -132 l2 -117 5 111 c4 66 11 117 18 126
7 8 10 18 6 21 -11 11 -21 8 -27 -9z"/>
<path d="M1493 1054 c0 -11 7 -14 24 -9 17 4 23 1 23 -10 0 -9 4 -13 10 -10 6
4 5 13 -3 25 -14 24 -54 27 -54 4z"/>
<path d="M2475 1030 c-30 -47 -46 -49 -172 -25 -43 8 -97 15 -121 15 -78 0
-142 -50 -142 -111 0 -30 28 -79 45 -79 20 0 19 6 -6 39 -25 34 -18 72 20 102
24 20 34 21 121 15 52 -4 124 -10 160 -14 l65 -7 3 -35 c1 -19 -1 -55 -6 -80
-7 -41 -10 -45 -41 -50 -49 -7 -53 -30 -6 -30 l38 0 -7 -42 c-25 -156 -210
-208 -333 -95 -32 29 -42 13 -12 -19 80 -88 264 -85 327 3 17 24 30 58 58 151
2 9 39 12 137 12 l134 0 6 -72 c7 -75 20 -132 36 -158 19 -29 23 0 7 62 -9 36
-16 88 -16 116 l0 52 46 0 c59 0 55 24 -4 28 -38 3 -42 6 -42 31 0 76 46 163
88 166 28 2 29 20 1 23 -54 6 -96 -58 -114 -175 l-7 -43 -66 0 c-37 0 -97 -3
-134 -7 l-68 -6 0 77 c0 77 0 78 40 117 47 46 53 79 15 79 -18 0 -32 -11 -50
-40z"/>
<path d="M340 1040 c-14 -10 -22 -22 -18 -25 9 -9 26 2 38 26 13 23 11 23 -20
-1z"/>
<path d="M4580 1045 c-160 -51 -276 -225 -249 -373 30 -157 242 -161 388 -7
29 31 57 53 62 50 5 -4 9 -28 9 -55 0 -46 -2 -50 -50 -85 -68 -50 -112 -116
-118 -176 -4 -41 -1 -51 21 -73 50 -50 122 -26 156 53 16 38 21 70 21 134 0
80 1 84 25 95 33 15 33 36 0 28 -21 -5 -25 -2 -31 29 -6 35 -1 105 12 173 6
29 4 33 -12 30 -13 -2 -21 -16 -26 -45 -8 -49 -68 -136 -125 -180 -108 -86
-254 -87 -298 -3 -58 112 39 297 191 367 47 21 67 25 129 21 90 -4 120 -22
155 -96 25 -53 40 -66 40 -35 0 35 -43 105 -81 130 -49 32 -150 40 -219 18z
m216 -551 c-10 -119 -37 -164 -100 -164 -16 0 -32 9 -41 24 -26 40 -3 99 67
169 34 34 62 55 69 51 8 -5 10 -30 5 -80z"/>
<path d="M1210 1010 c0 -12 27 -12 55 0 16 7 13 9 -17 9 -21 1 -38 -3 -38 -9z"/>
<path d="M1184 963 c1 -41 4 -48 19 -45 11 2 28 -5 39 -15 15 -13 11 -2 -13
44 -19 35 -37 63 -40 63 -4 0 -6 -21 -5 -47z"/>
<path d="M961 984 c0 -11 3 -14 6 -6 3 7 2 16 -1 19 -3 4 -6 -2 -5 -13z"/>
<path d="M1279 963 c-2 -67 -8 -96 -20 -104 -7 -4 0 -6 15 -6 22 2 26 6 21 22
-4 11 -6 44 -5 73 0 28 -1 52 -4 52 -4 0 -7 -17 -7 -37z"/>
<path d="M710 959 l-35 -19 43 0 c30 0 42 -4 42 -14 0 -8 5 -18 12 -22 8 -5 9
0 6 14 -4 15 -2 22 8 22 8 0 14 7 14 15 0 8 -6 15 -14 15 -8 0 -20 2 -28 4 -7
2 -29 -5 -48 -15z"/>
<path d="M275 950 c-3 -5 1 -10 10 -10 9 0 13 5 10 10 -3 6 -8 10 -10 10 -2 0
-7 -4 -10 -10z"/>
<path d="M1331 890 l2 -75 8 65 c5 40 5 68 -1 74 -7 7 -10 -17 -9 -64z"/>
<path d="M342 942 c-18 -3 -21 -8 -16 -30 9 -37 14 -40 14 -9 0 18 5 27 15 27
13 0 15 -11 13 -62 -2 -38 -8 -63 -15 -66 -9 -2 -13 8 -14 30 -1 21 -3 26 -6
13 -8 -33 -18 -36 -56 -20 -58 24 -84 96 -39 108 10 3 5 5 -10 6 -32 1 -35
-15 -17 -68 8 -23 25 -39 62 -59 73 -39 85 -47 107 -67 20 -18 20 -17 20 7 0
15 -7 29 -17 32 -12 5 -14 9 -5 18 7 7 12 38 12 70 l0 58 38 0 c21 0 47 -6 57
-14 24 -17 13 -46 -17 -47 -22 0 -22 -1 -3 -9 44 -19 54 -13 49 30 -5 40 3 49
22 30 8 -8 15 -6 24 5 11 13 8 15 -21 16 -19 0 -65 1 -104 2 -38 2 -80 1 -93
-1z"/>
<path d="M1690 943 c0 -5 4 -15 10 -23 11 -18 25 -7 17 15 -6 15 -27 21 -27 8z"/>
<path d="M720 909 c0 -5 5 -7 10 -4 6 3 10 8 10 11 0 2 -4 4 -10 4 -5 0 -10
-5 -10 -11z"/>
<path d="M960 842 l-5 -63 40 3 c37 3 40 5 43 36 3 31 2 32 -32 32 -30 0 -35
3 -38 28 -2 15 -6 -1 -8 -36z"/>
<path d="M757 883 c-14 -13 -6 -20 18 -15 14 2 22 8 19 13 -6 11 -28 12 -37 2z"/>
<path d="M402 868 c3 -7 13 -15 24 -17 16 -3 17 -1 5 13 -16 19 -34 21 -29 4z"/>
<path d="M1430 873 c0 -5 5 -15 10 -23 8 -12 10 -11 10 8 0 12 -4 22 -10 22
-5 0 -10 -3 -10 -7z"/>
<path d="M1541 851 c-1 -27 2 -32 11 -23 8 8 8 17 0 34 -10 22 -11 21 -11 -11z"/>
<path d="M433 814 c8 -8 197 -8 205 0 3 3 -43 6 -103 6 -60 0 -105 -3 -102 -6z"/>
<path d="M1220 810 c0 -5 5 -10 10 -10 6 0 10 5 10 10 0 6 -4 10 -10 10 -5 0
-10 -4 -10 -10z"/>
<path d="M1598 813 c12 -2 32 -2 45 0 12 2 2 4 -23 4 -25 0 -35 -2 -22 -4z"/>
<path d="M535 780 c-18 -4 32 -7 120 -7 117 0 136 2 85 7 -84 10 -167 10 -205
0z"/>
<path d="M1483 665 l0 -120 8 82 c4 46 10 87 14 93 3 5 2 10 -4 10 -5 0 -12
12 -14 28 -2 15 -4 -27 -4 -93z"/>
<path d="M3626 758 c-20 -28 -20 -42 -1 -58 9 -7 13 -20 10 -29 -11 -30 -69
-121 -77 -121 -4 0 -8 22 -8 49 0 55 -15 75 -29 39 -5 -13 -18 -32 -30 -42
-20 -18 -23 -18 -37 -4 -12 11 -14 25 -9 47 9 42 45 65 86 56 24 -5 30 -4 27
6 -3 8 -22 15 -45 17 -36 3 -43 -1 -69 -33 -86 -106 -91 -110 -109 -95 -12 10
-15 23 -12 46 15 94 -40 110 -93 28 -28 -45 -44 -48 -34 -8 4 13 3 36 0 50
-12 45 -46 28 -83 -41 -34 -65 -61 -89 -86 -79 -16 6 -31 54 -27 90 7 63 -15
52 -25 -12 -7 -46 -37 -88 -58 -81 -14 4 -16 92 -3 120 6 12 4 17 -7 17 -18 0
-37 -50 -37 -96 0 -56 50 -82 94 -49 17 13 22 12 43 -5 39 -31 87 0 129 83 13
26 27 47 30 47 3 0 4 -30 3 -67 -3 -57 -1 -68 13 -71 11 -2 26 13 44 45 55 96
74 102 74 24 0 -26 5 -52 12 -59 17 -17 58 -15 80 5 17 15 19 15 38 -2 14 -13
29 -16 55 -12 34 6 35 5 35 -28 0 -21 -12 -53 -30 -82 -40 -63 -73 -169 -65
-210 7 -40 36 -58 66 -43 34 19 49 71 50 177 l1 97 57 87 c32 47 61 98 65 112
3 15 13 27 21 27 11 0 15 -13 15 -52 1 -88 41 -116 104 -73 43 29 46 30 46 11
0 -19 34 -30 66 -22 36 9 31 -19 -17 -108 -65 -121 -63 -224 4 -214 40 6 60
62 66 179 l6 108 41 43 c46 48 68 84 56 92 -5 3 -25 -17 -45 -44 -51 -68 -61
-65 -52 16 5 53 4 65 -6 62 -8 -3 -20 -26 -27 -51 -13 -47 -42 -74 -63 -61
-12 7 -8 84 6 117 5 11 3 17 -7 17 -8 0 -19 -15 -26 -32 -18 -52 -71 -110 -96
-106 -18 3 -22 11 -26 68 -4 58 -7 65 -28 68 -12 2 -29 16 -37 33 -19 35 -20
35 -39 7z m312 -372 c-4 -83 -17 -116 -44 -116 -22 0 -26 36 -10 90 14 47 45
110 54 110 3 0 3 -38 0 -84z m-420 -35 c-5 -81 -27 -137 -51 -128 -19 7 -12
97 13 155 32 74 43 67 38 -27z"/>
<path d="M1771 754 c0 -11 3 -14 6 -6 3 7 2 16 -1 19 -3 4 -6 -2 -5 -13z"/>
<path d="M5387 763 c-4 -3 -7 -19 -7 -35 0 -43 -68 -158 -93 -158 -5 0 -7 27
-5 60 1 33 -1 61 -6 62 -4 2 -17 -20 -27 -49 -19 -50 -40 -70 -61 -57 -7 4 -8
31 -5 70 4 35 3 64 -1 64 -4 0 -20 -27 -35 -61 -49 -104 -107 -105 -107 -3 0
65 -16 71 -25 10 -7 -42 -35 -86 -56 -86 -20 0 -32 47 -20 81 13 38 14 59 3
59 -27 0 -44 -124 -20 -148 17 -17 58 -15 80 5 17 15 19 15 31 -2 18 -24 63
-22 92 5 l23 22 12 -22 c10 -19 18 -22 51 -17 34 4 39 3 39 -15 0 -11 -9 -33
-20 -48 -39 -54 -70 -139 -70 -189 0 -54 15 -74 52 -69 39 5 60 65 63 179 l2
99 47 50 c25 27 51 61 58 75 14 32 26 32 39 -2 15 -39 4 -56 -31 -51 -43 6
-39 -19 6 -38 29 -12 43 -13 71 -4 36 13 93 80 92 109 0 11 -7 7 -22 -13 -31
-42 -68 -76 -82 -76 -7 0 -10 11 -7 30 2 18 -4 51 -17 80 -11 27 -21 58 -21
69 0 21 -11 27 -23 14z m-140 -377 c-6 -83 -20 -119 -45 -114 -24 5 -19 80 9
141 32 68 43 60 36 -27z"/>
<path d="M1563 727 c-4 -22 -8 -25 -19 -16 -11 9 -14 6 -13 -17 0 -16 3 -23 6
-16 20 51 32 -54 14 -131 -6 -23 -5 -39 1 -43 5 -3 8 -17 6 -30 l-3 -24 135
-6 c135 -5 171 3 63 15 l-58 6 1 142 1 141 -64 4 c-63 3 -65 3 -70 -25z m107
-14 c1 -5 2 -60 3 -123 l2 -115 -45 0 -45 0 -2 110 c-2 61 -1 116 2 123 5 13
85 17 85 5z"/>
<path d="M620 740 c0 -6 35 -10 86 -10 54 0 83 4 79 10 -3 6 -42 10 -86 10
-46 0 -79 -4 -79 -10z"/>
<path d="M1396 712 c-5 -8 -40 -13 -99 -14 l-92 -2 100 -5 c98 -6 111 -3 103
21 -3 9 -6 9 -12 0z"/>
<path d="M1713 704 c-3 -8 -1 -20 6 -27 8 -8 11 -4 11 16 0 30 -7 35 -17 11z"/>
<path d="M1762 695 c0 -16 2 -22 5 -12 2 9 2 23 0 30 -3 6 -5 -1 -5 -18z"/>
<path d="M1090 700 c0 -5 7 -10 15 -10 8 0 15 5 15 10 0 6 -7 10 -15 10 -8 0
-15 -4 -15 -10z"/>
<path d="M1151 694 c0 -11 3 -14 6 -6 3 7 2 16 -1 19 -3 4 -6 -2 -5 -13z"/>
<path d="M4143 683 c-7 -2 -13 -9 -13 -14 0 -15 123 -6 128 9 3 9 -11 12 -50
11 -29 0 -59 -3 -65 -6z"/>
<path d="M330 570 c0 -19 -2 -66 -5 -105 l-5 -70 15 70 c9 39 14 80 12 92 -2
12 1 19 7 17 6 -2 11 -19 11 -37 0 -32 1 -32 47 -32 l46 0 7 -63 c4 -35 4 -66
1 -69 -3 -4 -6 3 -6 15 0 11 -4 24 -10 27 -6 4 -10 -6 -10 -23 0 -25 5 -30 30
-36 17 -3 41 -17 53 -30 15 -17 37 -27 69 -32 44 -6 50 -4 77 25 27 29 28 33
19 83 -12 66 -30 94 -73 115 -31 15 -38 15 -75 1 -39 -16 -39 -16 -30 3 6 10
20 19 30 19 22 0 27 16 8 23 -7 3 6 6 30 6 25 1 41 -3 37 -8 -3 -6 10 -17 29
-26 20 -9 45 -31 56 -48 20 -30 21 -30 16 -7 l-5 25 203 2 203 2 -5 -27 -4
-27 17 23 c16 22 45 30 45 12 0 -5 -7 -10 -15 -10 -31 0 -56 -96 -34 -137 16
-30 58 -53 98 -53 43 0 60 9 77 41 17 35 18 44 2 44 -7 0 -16 18 -19 39 -4 27
-16 47 -35 63 l-29 23 98 0 c81 0 97 3 97 16 0 13 -19 15 -141 12 l-141 -3 7
43 c6 41 5 43 -14 33 -11 -6 -31 -11 -45 -11 -14 0 -26 -4 -26 -10 0 -5 -9
-10 -20 -10 -12 0 -17 -5 -14 -14 6 -16 -37 -23 -109 -18 -32 3 -47 9 -47 18
0 11 -16 14 -65 14 -36 0 -65 4 -65 9 0 4 -90 12 -200 17 l-200 9 0 -35z m265
-110 c3 -5 -3 -10 -15 -10 -12 0 -18 5 -15 10 3 6 10 10 15 10 5 0 12 -4 15
-10z m630 -10 c3 -5 1 -10 -4 -10 -6 0 -11 5 -11 10 0 6 2 10 4 10 3 0 8 -4
11 -10z m-658 -52 c-3 -8 -6 -5 -6 6 -1 11 2 17 5 13 3 -3 4 -12 1 -19z m70
-15 c-3 -10 -5 -4 -5 12 0 17 2 24 5 18 2 -7 2 -21 0 -30z m613 10 c-1 -24 -2
-26 -11 -10 -5 9 -7 22 -4 27 10 17 15 11 15 -17z m-630 7 c0 -5 -4 -10 -10
-10 -5 0 -10 5 -10 10 0 6 5 10 10 10 6 0 10 -4 10 -10z m-5 -50 c-3 -5 -12
-10 -18 -10 -7 0 -6 4 3 10 19 12 23 12 15 0z m610 -9 c-3 -6 -16 -11 -28 -11
-21 0 -21 1 3 13 27 15 36 14 25 -2z"/>
<path d="M1008 583 c7 -3 16 -2 19 1 4 3 -2 6 -13 5 -11 0 -14 -3 -6 -6z"/>
<path d="M1701 543 c1 -28 3 -31 6 -13 3 14 10 31 15 38 8 9 6 12 -6 12 -12 0
-16 -9 -15 -37z"/>
<path d="M1768 545 c2 -19 6 -35 8 -35 2 0 4 16 4 35 0 19 -4 35 -8 35 -4 0
-6 -16 -4 -35z"/>
<path d="M1479 490 c-3 -31 1 -56 8 -61 8 -7 10 5 8 47 -5 73 -12 79 -16 14z"/>
<path d="M270 445 c0 -8 2 -15 4 -15 2 0 6 7 10 15 3 8 1 15 -4 15 -6 0 -10
-7 -10 -15z"/>
<path d="M1405 450 c4 -6 11 -8 16 -5 14 9 11 15 -7 15 -8 0 -12 -5 -9 -10z"/>
<path d="M721 434 c0 -11 3 -14 6 -6 3 7 2 16 -1 19 -3 4 -6 -2 -5 -13z"/>
<path d="M1291 404 c0 -11 3 -14 6 -6 3 7 2 16 -1 19 -3 4 -6 -2 -5 -13z"/>
<path d="M1082 375 c0 -16 2 -22 5 -12 2 9 2 23 0 30 -3 6 -5 -1 -5 -18z"/>
<path d="M1482 374 c-7 -8 -28 -14 -47 -14 -19 0 -35 -4 -35 -8 0 -19 48 -50
87 -57 39 -6 46 -4 73 23 43 43 39 56 -14 48 -34 -5 -45 -4 -48 8 -3 12 -5 12
-16 0z"/>
<path d="M1713 363 c15 -2 39 -2 55 0 15 2 2 4 -28 4 -30 0 -43 -2 -27 -4z"/>
<path d="M747 342 c17 -43 153 -42 153 2 0 9 -20 13 -79 12 -59 -1 -77 -4 -74
-14z"/>
</g>
</svg>
