<?xml version="1.0" standalone="no"?>
<!DOCTYPE svg PUBLIC "-//W3C//DTD SVG 20010904//EN"
 "http://www.w3.org/TR/2001/REC-SVG-20010904/DTD/svg10.dtd">
<svg version="1.0" xmlns="http://www.w3.org/2000/svg"
 width="582.000000pt" height="194.000000pt" viewBox="0 0 582.000000 194.000000"
 preserveAspectRatio="xMidYMid meet">

<g transform="translate(0.000000,194.000000) scale(0.100000,-0.100000)"
fill="#000000" stroke="none">
<path d="M5046 1454 c-3 -9 -6 -46 -6 -83 l0 -68 -79 -17 c-52 -11 -97 -28
-128 -49 -78 -52 -115 -151 -77 -205 l15 -22 355 0 c316 0 355 -2 361 -16 3
-9 0 -20 -8 -25 -8 -5 -209 -9 -447 -9 -343 0 -433 -3 -430 -12 4 -10 102 -14
438 -16 469 -2 480 -1 480 51 -1 53 8 52 -376 57 -404 6 -388 2 -365 81 27 89
135 144 281 143 139 -1 241 -51 274 -135 12 -30 20 -39 28 -31 13 13 5 46 -22
90 -24 39 -116 86 -200 102 -97 18 -94 47 5 52 l60 3 0 50 0 50 -60 3 c-33 2
-64 7 -69 13 -14 13 -23 11 -30 -7z m129 -59 c0 -16 -8 -21 -44 -23 -48 -4
-67 8 -57 33 4 12 17 15 53 13 40 -3 48 -6 48 -23z"/>
<path d="M235 1172 l25 -13 0 -216 c0 -194 -2 -217 -17 -229 -16 -12 -9 -13
50 -14 61 0 67 2 53 15 -21 22 -29 71 -22 151 2 38 4 76 4 84 0 8 -1 57 -2
108 -1 85 1 95 21 110 22 16 20 17 -57 17 -72 1 -77 -1 -55 -13z"/>
<path d="M526 1172 c23 -12 24 -16 24 -116 0 -74 -4 -106 -12 -109 -10 -4 -10
-6 0 -6 9 -1 12 -29 12 -107 0 -90 -3 -109 -17 -120 -16 -12 -9 -13 50 -14 62
0 67 1 53 16 -14 13 -16 48 -16 229 l0 214 24 13 c22 12 15 13 -59 13 -74 0
-81 -1 -59 -13z"/>
<path d="M3025 1171 c-73 -45 -111 -111 -121 -209 -8 -72 15 -157 53 -203 32
-37 95 -69 138 -68 l30 1 -35 10 c-86 24 -124 105 -118 251 4 109 32 178 87
214 25 17 29 23 15 23 -10 0 -32 -8 -49 -19z"/>
<path d="M3160 1186 c0 -2 9 -6 20 -9 11 -3 18 -1 14 4 -5 9 -34 13 -34 5z"/>
<path d="M3274 1163 c-9 -15 -15 -16 -39 -5 l-27 13 26 -31 c14 -18 29 -44 32
-58 15 -71 30 -29 22 64 -3 29 -5 32 -14 17z"/>
<path d="M1804 1064 c-14 -6 -6 -50 12 -65 11 -9 18 -8 29 1 36 30 3 82 -41
64z"/>
<path d="M972 1052 l-43 -3 21 -26 c17 -21 20 -40 20 -112 0 -47 -4 -102 -10
-121 -6 -19 -6 -36 -1 -39 5 -4 11 -17 12 -31 2 -14 10 -25 17 -24 6 1 29 2
49 3 37 1 37 1 15 17 -21 15 -22 21 -22 174 0 87 -3 160 -7 162 -5 2 -27 2
-51 0z"/>
<path d="M1305 1051 c-3 -5 9 -11 27 -13 49 -5 58 -32 58 -175 0 -110 -2 -125
-20 -143 l-20 -20 72 0 c67 0 71 1 51 15 -19 13 -21 26 -25 156 -3 140 -4 141
-31 165 -29 25 -100 34 -112 15z"/>
<path d="M1583 1040 c-63 -38 -61 -136 4 -176 15 -10 30 -19 32 -21 2 -1 -8
-14 -22 -27 -32 -30 -35 -71 -8 -86 11 -5 41 -10 68 -10 57 0 113 -15 125 -32
13 -21 9 -50 -9 -70 -22 -24 -12 -31 16 -11 33 22 53 76 41 107 -14 37 -46 50
-135 56 -73 5 -80 7 -83 27 -2 14 4 26 17 33 24 12 28 30 6 30 -8 0 -19 9 -25
19 -15 29 -12 124 5 147 29 38 16 44 -32 14z"/>
<path d="M1680 1051 c0 -5 7 -14 15 -21 21 -17 20 -128 -1 -158 -13 -19 -13
-22 0 -22 8 0 28 12 46 26 29 25 31 29 28 95 -1 37 -5 66 -9 63 -4 -2 -20 3
-35 11 -33 17 -44 19 -44 6z"/>
<path d="M2075 1050 c-3 -5 0 -7 8 -4 20 7 31 -14 17 -31 -25 -30 30 -61 58
-33 17 17 15 35 -8 58 -21 21 -65 27 -75 10z"/>
<path d="M4169 1031 c-52 -52 -33 -104 61 -170 76 -53 94 -79 81 -114 -5 -14
-20 -33 -33 -42 l-23 -17 35 6 c51 9 80 41 80 89 0 43 -25 73 -115 137 -64 45
-78 80 -45 115 20 21 21 25 6 25 -10 0 -31 -13 -47 -29z"/>
<path d="M738 1030 c20 -19 22 -30 22 -146 0 -162 15 -194 88 -194 34 0 72 10
72 19 0 4 -17 5 -37 3 -58 -7 -63 8 -63 185 l0 153 -52 0 -52 0 22 -20z"/>
<path d="M1148 1030 c21 -19 22 -30 22 -160 0 -132 -1 -140 -22 -154 -21 -15
-19 -16 45 -16 l67 0 -16 25 c-13 20 -15 45 -12 132 2 59 8 117 13 127 6 14 5
17 -3 12 -8 -5 -12 3 -12 23 0 31 -1 31 -52 31 l-52 0 22 -20z"/>
<path d="M1925 1030 c34 -38 33 -280 -1 -315 -14 -13 -6 -15 68 -15 78 1 81 2
52 14 -18 8 -34 24 -37 37 -10 37 -8 149 4 199 7 31 7 46 0 48 -6 2 -11 15
-11 28 0 22 -4 24 -47 24 -45 0 -46 0 -28 -20z"/>
<path d="M2190 1041 c0 -5 6 -11 13 -14 8 -3 44 -80 82 -171 37 -91 69 -166
72 -166 4 0 21 42 29 77 4 16 3 24 -3 20 -11 -7 -93 189 -93 221 0 12 8 26 18
31 13 8 0 10 -50 11 -38 0 -68 -4 -68 -9z"/>
<path d="M2445 1030 c13 -14 16 -29 12 -57 -6 -37 -6 -37 5 -8 6 17 19 39 29
51 27 29 24 34 -23 34 -40 0 -41 0 -23 -20z"/>
<path d="M3396 1029 c16 -18 20 -42 24 -161 5 -132 6 -141 29 -159 25 -20 86
-25 111 -9 11 7 6 10 -20 10 -20 0 -41 5 -48 12 -8 8 -12 60 -12 170 l0 158
-52 0 -51 0 19 -21z"/>
<path d="M3601 1031 c23 -18 24 -26 24 -128 0 -82 -4 -116 -17 -142 -11 -21
-13 -29 -4 -22 16 14 26 4 26 -27 0 -18 4 -23 16 -18 9 3 29 6 46 6 31 0 31 0
12 21 -17 18 -19 40 -22 175 l-3 154 -51 0 -50 0 23 -19z"/>
<path d="M3776 1028 c20 -23 32 -48 105 -222 31 -76 40 -108 36 -135 -6 -40
-3 -35 37 71 27 68 36 117 12 63 l-13 -30 -25 55 c-55 124 -72 181 -60 201 11
18 8 19 -50 19 l-61 0 19 -22z"/>
<path d="M4019 1031 c19 -15 22 -24 17 -52 l-7 -34 16 35 c9 19 23 42 32 52
15 17 13 18 -33 18 l-49 0 24 -19z"/>
<path d="M4340 1039 c0 -6 -8 -8 -19 -4 -17 5 -17 3 3 -39 11 -25 24 -45 29
-46 4 0 7 23 7 50 0 28 -4 50 -10 50 -5 0 -10 -5 -10 -11z"/>
<path d="M1270 1030 c-8 -5 -12 -12 -9 -15 4 -3 12 1 19 10 14 17 11 19 -10 5z"/>
<path d="M398 943 c23 -2 61 -2 85 0 23 2 4 4 -43 4 -47 0 -66 -2 -42 -4z"/>
<path d="M4000 890 c-6 -23 -9 -44 -7 -46 2 -3 9 14 15 38 6 23 9 44 7 46 -2
2 -9 -15 -15 -38z"/>
<path d="M2570 880 c0 -20 5 -21 117 -18 103 3 118 5 121 21 3 15 -8 17 -117
17 -115 0 -121 -1 -121 -20z"/>
<path d="M3188 893 c33 -6 45 -38 40 -108 -4 -59 -3 -61 19 -57 13 2 23 -1 23
-7 0 -6 5 -11 10 -11 6 0 10 34 10 83 0 51 5 88 12 95 9 9 -5 12 -62 11 -41
-1 -65 -4 -52 -6z"/>
<path d="M2416 875 c-3 -9 -6 -22 -5 -28 0 -7 5 -1 10 12 5 13 8 26 5 28 -2 2
-6 -3 -10 -12z"/>
<path d="M4140 760 c0 -33 4 -60 10 -60 6 0 10 5 10 10 0 6 13 4 30 -5 42 -22
46 -19 12 10 -20 17 -33 38 -37 65 -10 60 -25 48 -25 -20z"/>
<path d="M4606 731 c-18 -28 13 -31 309 -31 367 0 419 -9 521 -86 29 -23 32
-23 46 -7 18 21 38 77 38 105 0 31 -21 16 -35 -26 -7 -20 -15 -40 -18 -42 -3
-3 -29 8 -58 25 -107 59 -135 63 -480 68 -227 4 -318 2 -323 -6z"/>
<path d="M1535 675 c-14 -13 -25 -31 -25 -39 0 -29 57 -67 98 -65 13 0 11 3
-5 9 -12 5 -30 21 -39 36 -17 25 -17 28 -1 55 20 35 5 38 -28 4z"/>
<path d="M2336 665 c-3 -9 -6 -22 -5 -28 0 -7 5 -1 10 12 5 13 8 26 5 28 -2 2
-6 -3 -10 -12z"/>
<path d="M4613 644 c-7 -3 -13 -11 -13 -18 0 -13 39 -17 153 -17 31 1 75 1 97
1 22 0 65 0 95 0 30 0 73 0 95 0 22 0 65 -1 95 -1 142 -1 195 13 132 35 -17 6
-44 5 -81 -4 -46 -11 -63 -11 -95 0 -24 7 -52 10 -73 5 -18 -4 -52 -7 -75 -6
-57 1 -134 1 -185 0 -24 -1 -63 1 -88 5 -25 3 -51 3 -57 0z"/>
<path d="M2219 624 c-20 -25 1 -49 47 -51 21 -1 33 0 27 3 -7 3 -13 13 -13 23
0 37 -38 53 -61 25z"/>
<path d="M3794 626 c-3 -8 -4 -23 -2 -33 4 -24 72 -28 90 -4 10 13 10 14 -2 4
-21 -19 -28 -16 -32 15 -3 31 -44 45 -54 18z"/>
<path d="M4618 559 c-30 -17 -20 -28 25 -28 62 1 97 -15 97 -45 0 -15 11 -33
26 -45 26 -20 39 -21 294 -21 246 0 270 2 291 19 18 14 23 29 23 66 1 64 -20
71 -27 9 -2 -25 -11 -50 -18 -55 -8 -5 -129 -9 -270 -9 -270 0 -295 4 -287 46
5 28 67 41 125 25 37 -9 57 -9 94 0 38 10 59 10 101 0 39 -9 60 -10 81 -2 16
6 52 11 80 11 l52 1 -24 19 c-28 24 -48 25 -101 4 -38 -15 -44 -15 -87 1 -44
17 -49 17 -99 0 -49 -17 -54 -17 -97 0 -44 17 -48 17 -95 0 -47 -17 -52 -17
-91 -2 -47 19 -69 21 -93 6z"/>
</g>
</svg>
